<svg width="1920" height="1080" viewBox="0 0 1920 1080" fill="none" xmlns="http://www.w3.org/2000/svg">
<g filter="url(#filter0_f_8_23)">
<g filter="url(#filter1_f_8_23)">
<path d="M1268.83 158.812C1268.83 410.556 850.759 761.63 548.069 761.63C245.379 761.63 0 557.552 0 305.808C0 54.0639 434.284 30.0216 736.974 30.0216C1039.66 30.0216 1268.83 -92.932 1268.83 158.812Z" fill="url(#paint0_linear_8_23)"/>
<path d="M1829.24 475.409C2182.55 894.114 1411.17 1078.23 1108.48 1078.23C805.793 1078.23 779.133 1114.17 779.133 862.422C779.133 539.757 994.698 346.618 1297.39 346.618C1600.08 346.618 1829.24 223.665 1829.24 475.409Z" fill="url(#paint1_linear_8_23)"/>
</g>
</g>
<defs>
<filter id="filter0_f_8_23" x="-4" y="-4" width="1928" height="1088" filterUnits="userSpaceOnUse" color-interpolation-filters="sRGB">
<feFlood flood-opacity="0" result="BackgroundImageFix"/>
<feBlend mode="normal" in="SourceGraphic" in2="BackgroundImageFix" result="shape"/>
<feGaussianBlur stdDeviation="2" result="effect1_foregroundBlur_8_23"/>
</filter>
<filter id="filter1_f_8_23" x="-290" y="-290" width="2500" height="1660" filterUnits="userSpaceOnUse" color-interpolation-filters="sRGB">
<feFlood flood-opacity="0" result="BackgroundImageFix"/>
<feBlend mode="normal" in="SourceGraphic" in2="BackgroundImageFix" result="shape"/>
<feGaussianBlur stdDeviation="145" result="effect1_foregroundBlur_8_23"/>
</filter>
<linearGradient id="paint0_linear_8_23" x1="787.021" y1="216.449" x2="787.021" y2="978.079" gradientUnits="userSpaceOnUse">
<stop stop-color="#00FFF0" stop-opacity="0.73"/>
<stop offset="1" stop-color="#001AFF" stop-opacity="0"/>
</linearGradient>
<linearGradient id="paint1_linear_8_23" x1="641.509" y1="111.737" x2="641.509" y2="1082.58" gradientUnits="userSpaceOnUse">
<stop stop-color="#B7FFFB"/>
<stop offset="1" stop-color="#0082FA" stop-opacity="0"/>
</linearGradient>
</defs>
</svg>
